<svg width="800" height="200" xmlns="http://www.w3.org/2000/svg">
  <defs>
    <!-- Professional gradient definitions -->
    <linearGradient id="bgGradient" x1="0%" y1="0%" x2="100%" y2="0%">
      <stop offset="0%" style="stop-color:#0f0f0f;stop-opacity:1" />
      <stop offset="100%" style="stop-color:#1a1a1a;stop-opacity:1" />
    </linearGradient>
    
    <linearGradient id="accentGradient" x1="0%" y1="0%" x2="100%" y2="0%">
      <stop offset="0%" style="stop-color:#3b82f6;stop-opacity:1" />
      <stop offset="100%" style="stop-color:#1d4ed8;stop-opacity:1" />
    </linearGradient>
    
    <!-- Subtle glow for professional look -->
    <filter id="softGlow">
      <feGaussianBlur stdDeviation="1" result="coloredBlur"/>
      <feMerge> 
        <feMergeNode in="coloredBlur"/>
        <feMergeNode in="SourceGraphic"/>
      </feMerge>
    </filter>
    
    <!-- Minimal animations -->
    <style>
      .subtle-fade {
        animation: subtleFade 4s ease-in-out infinite;
      }
      
      @keyframes subtleFade {
        0%, 100% { opacity: 0.3; }
        50% { opacity: 0.7; }
      }
      
      .data-flow {
        stroke-dasharray: 2,8;
        animation: dataFlow 3s linear infinite;
      }
      
      @keyframes dataFlow {
        0% { stroke-dashoffset: 0; }
        100% { stroke-dashoffset: 20; }
      }
    </style>
  </defs>
  
  <!-- Background -->
  <rect width="800" height="200" fill="url(#bgGradient)"/>
  
  <!-- Subtle grid pattern -->
  <defs>
    <pattern id="grid" width="40" height="40" patternUnits="userSpaceOnUse">
      <path d="M 40 0 L 0 0 0 40" fill="none" stroke="#262626" stroke-width="0.5" opacity="0.3"/>
    </pattern>
  </defs>
  <rect width="800" height="200" fill="url(#grid)"/>
  
  <!-- Professional AI Icon -->
  <g transform="translate(60, 70)">
    <!-- Modern chip design -->
    <rect x="0" y="0" width="60" height="60" rx="8" fill="none" stroke="url(#accentGradient)" stroke-width="2"/>
    <rect x="10" y="10" width="40" height="40" rx="4" fill="#262626" stroke="url(#accentGradient)" stroke-width="1"/>
    
    <!-- Circuit paths -->
    <line x1="20" y1="15" x2="40" y2="15" stroke="url(#accentGradient)" stroke-width="1" class="data-flow"/>
    <line x1="20" y1="25" x2="40" y2="25" stroke="url(#accentGradient)" stroke-width="1" class="data-flow"/>
    <line x1="20" y1="35" x2="40" y2="35" stroke="url(#accentGradient)" stroke-width="1" class="data-flow"/>
    <line x1="20" y1="45" x2="40" y2="45" stroke="url(#accentGradient)" stroke-width="1" class="data-flow"/>
    
    <!-- Connection points -->
    <circle cx="30" cy="20" r="2" fill="url(#accentGradient)"/>
    <circle cx="30" cy="40" r="2" fill="url(#accentGradient)"/>
    
    <!-- External connections -->
    <line x1="0" y1="20" x2="10" y2="20" stroke="#666666" stroke-width="2"/>
    <line x1="0" y1="40" x2="10" y2="40" stroke="#666666" stroke-width="2"/>
    <line x1="50" y1="20" x2="60" y2="20" stroke="#666666" stroke-width="2"/>
    <line x1="50" y1="40" x2="60" y2="40" stroke="#666666" stroke-width="2"/>
  </g>
  
  <!-- Main Name -->
  <text x="200" y="90" font-family="'SF Pro Display', 'Segoe UI', Arial, sans-serif" font-size="42" font-weight="300" 
        fill="#ffffff" filter="url(#softGlow)">
    Sai Rohith
  </text>
  
  <!-- Professional Title -->
  <text x="200" y="120" font-family="'SF Pro Display', 'Segoe UI', Arial, sans-serif" font-size="18" font-weight="400"
        fill="url(#accentGradient)">
    AI Engineer & Technology Enthusiast
  </text>
  
  <!-- Separator line -->
  <line x1="200" y1="135" x2="350" y2="135" stroke="url(#accentGradient)" stroke-width="1" opacity="0.6"/>
  
  <!-- Skills/Focus areas -->
  <text x="200" y="155" font-family="'SF Pro Display', 'Segoe UI', Arial, sans-serif" font-size="14" 
        fill="#a1a1aa" opacity="0.8">
    Machine Learning • Deep Learning • AI Development
  </text>
  
  <!-- Minimal geometric decoration -->
  <g transform="translate(650, 60)" class="subtle-fade">
    <!-- Modern hexagon pattern -->
    <polygon points="20,5 35,15 35,35 20,45 5,35 5,15" fill="none" stroke="url(#accentGradient)" stroke-width="1"/>
    <polygon points="20,15 30,22 30,33 20,40 10,33 10,22" fill="none" stroke="url(#accentGradient)" stroke-width="0.5" opacity="0.6"/>
    <circle cx="20" cy="27.5" r="3" fill="url(#accentGradient)" opacity="0.4"/>
  </g>
  
  <!-- Data visualization elements -->
  <g transform="translate(550, 120)">
    <!-- Simple bar chart representation -->
    <rect x="0" y="15" width="3" height="15" fill="url(#accentGradient)" opacity="0.6"/>
    <rect x="8" y="10" width="3" height="20" fill="url(#accentGradient)" opacity="0.8"/>
    <rect x="16" y="5" width="3" height="25" fill="url(#accentGradient)"/>
    <rect x="24" y="12" width="3" height="18" fill="url(#accentGradient)" opacity="0.7"/>
    <rect x="32" y="8" width="3" height="22" fill="url(#accentGradient)" opacity="0.9"/>
  </g>
</svg>
